Coordinates
version=1
nRows=9
nColumns=24
inDegrees=yes

Units are S.I. units (second, meters, Newtons, ...)
Angles are in degrees.

endheader
time	pelvis_tilt	pelvis_list	pelvis_rotation	pelvis_tx	pelvis_ty	pelvis_tz	hip_flexion_r	hip_adduction_r	hip_rotation_r	knee_angle_r	ankle_angle_r	subtalar_angle_r	mtp_angle_r	hip_flexion_l	hip_adduction_l	hip_rotation_l	knee_angle_l	ankle_angle_l	subtalar_angle_l	mtp_angle_l	lumbar_extension	lumbar_bending	lumbar_rotation
      5.29000000	     41.12926690	      7.38333389	      3.87547035	      0.18448040	      0.68123028	     -0.27724964	    -39.66789995	     -0.32160283	     -5.74241802	     -7.40019826	     15.75248800	      0.70343478	      0.00000000	    -23.60146961	     -0.48069723	     -8.46289855	    -66.91525873	      2.14226671	     -3.17047593	      0.00000000	    -61.18716969	     -2.35834510	     -5.42041137
      5.29500000	     41.10411576	      7.47241641	      3.56696353	      0.18936049	      0.68141057	     -0.27704577	    -40.28268606	     -0.54181852	     -5.86233360	     -7.03992293	     16.07216879	      1.10110702	      0.00000000	    -22.90964513	     -0.11979491	     -8.94843196	    -66.47468224	      2.85291857	     -2.59683618	      0.00000000	    -61.21263647	     -2.61505460	     -5.22552245
      5.30000000	     41.12886478	      7.51438791	      3.22269296	      0.19422355	      0.68154556	     -0.27690197	    -40.93251831	     -0.75370781	     -6.00687337	     -6.69720062	     16.44513329	      1.56458572	      0.00000000	    -22.30850153	      0.20357283	     -9.49373881	    -65.92798075	      3.52013152	     -2.01104297	      0.00000000	    -61.28038553	     -2.82951173	     -4.99159748
      5.30500000	     41.19204947	      7.55416660	      2.86863923	      0.19904355	      0.68163649	     -0.27678307	    -41.61707915	     -0.97569837	     -6.09467634	     -6.36034987	     16.78435014	      2.06931304	      0.00000000	    -21.77218514	      0.53815918	    -10.01612806	    -65.28723315	      4.18906989	     -1.44001572	      0.00000000	    -61.40615912	     -3.05684039	     -4.71087942
      5.31000000	     41.12625899	      7.61634694	      2.62704521	      0.20386291	      0.68160900	     -0.27662507	    -42.15528846	     -1.13745883	     -6.27243029	     -6.04452593	     17.07668292	      2.35030801	      0.00000000	    -21.07556048	      0.82925232	    -10.44776420	    -64.62049438	      4.78239966	     -0.74065594	      0.00000000	    -61.41735634	     -3.26362150	     -4.54322379
      5.31500000	     41.10506451	      7.62494299	      2.36142542	      0.20865890	      0.68152728	     -0.27653547	    -42.71986834	     -1.28382799	     -6.44515761	     -5.75712742	     17.43758502	      2.79081490	      0.00000000	    -20.46457874	      1.08041919	    -10.90579026	    -63.85349416	      5.40560494	     -0.03230582	      0.00000000	    -61.46411236	     -3.41140420	     -4.31853556
      5.32000000	     41.20348348	      7.60335809	      2.00472145	      0.21339714	      0.68144255	     -0.27644523	    -43.39601796	     -1.46888369	     -6.58754928	     -5.47839077	     17.81981039	      3.35933790	      0.00000000	    -20.03756686	      1.34070218	    -11.43635960	    -62.94878824	      6.00979140	      0.56435211	      0.00000000	    -61.64496632	     -3.59508019	     -3.99882799
      5.32500000	     41.19648070	      7.58178957	      1.76471602	      0.21815646	      0.68124020	     -0.27639477	    -43.95524952	     -1.57835642	     -6.73488874	     -5.22366160	     18.18873789	      3.76836392	      0.00000000	    -19.48834201	      1.55134554	    -11.85419852	    -62.01303667	      6.59104977	      1.26498962	      0.00000000	    -61.71868867	     -3.70401661	     -3.79472525
      5.33000000	     41.11985338	      7.56966779	      1.59565892	      0.22290896	      0.68095537	     -0.27634317	    -44.42792959	     -1.64593229	     -6.93660849	     -4.99724565	     18.51241934	      4.05853765	      0.00000000	    -18.87069666	      1.74329468	    -12.19654072	    -61.01338288	      7.12456056	      1.96380972	      0.00000000	    -61.73458563	     -3.79798253	     -3.61906405
